<svg xmlns="http://www.w3.org/2000/svg" width="52.849" height="53.103" viewBox="0 0 52.849 53.103">
  <path id="whatsapp" d="M45.4,7.717A26.32,26.32,0,0,0,3.983,39.467L.25,53.1,14.2,49.444a26.285,26.285,0,0,0,12.575,3.2h.011A26.325,26.325,0,0,0,45.4,7.717ZM26.785,48.2h-.009a21.844,21.844,0,0,1-11.132-3.049l-.8-.474L6.568,46.851l2.209-8.071-.52-.827A21.871,21.871,0,1,1,26.785,48.2Zm12-16.38c-.657-.329-3.89-1.919-4.493-2.139s-1.041-.329-1.479.329-1.7,2.139-2.082,2.578-.767.494-1.424.165a17.959,17.959,0,0,1-5.288-3.264,19.833,19.833,0,0,1-3.658-4.554c-.383-.659,0-.98.288-1.342a18.6,18.6,0,0,0,1.644-2.249,1.209,1.209,0,0,0-.055-1.152c-.164-.329-1.479-3.565-2.027-4.882-.534-1.282-1.076-1.108-1.48-1.129-.383-.019-.822-.023-1.26-.023a2.415,2.415,0,0,0-1.753.823,7.374,7.374,0,0,0-2.3,5.485c0,3.236,2.356,6.363,2.685,6.8s4.636,7.08,11.232,9.928a37.635,37.635,0,0,0,3.748,1.385,9.014,9.014,0,0,0,4.141.261c1.263-.189,3.89-1.591,4.438-3.126a5.494,5.494,0,0,0,.383-3.127C39.878,32.316,39.439,32.151,38.782,31.822Zm0,0" transform="translate(-0.25)" fill="#fff" fill-rule="evenodd"/>
</svg>
