<svg xmlns="http://www.w3.org/2000/svg" width="45.014" height="45.231" viewBox="0 0 45.014 45.231">
  <path id="whatsapp" d="M38.706,6.573A22.418,22.418,0,0,0,3.43,33.617L.25,45.231l11.882-3.117a22.389,22.389,0,0,0,10.711,2.728h.009A22.423,22.423,0,0,0,38.706,6.573ZM22.851,41.057h-.008a18.606,18.606,0,0,1-9.482-2.6l-.68-.4-7.051,1.85,1.882-6.874-.443-.7a18.629,18.629,0,1,1,15.781,8.73ZM33.07,27.1c-.56-.28-3.313-1.635-3.827-1.822s-.887-.28-1.26.28-1.447,1.822-1.773,2.2-.653.421-1.213.14a15.3,15.3,0,0,1-4.5-2.78,16.893,16.893,0,0,1-3.115-3.879c-.326-.561,0-.835.246-1.143a15.842,15.842,0,0,0,1.4-1.916,1.03,1.03,0,0,0-.047-.981c-.14-.28-1.26-3.037-1.726-4.158-.455-1.092-.916-.944-1.26-.961-.326-.016-.7-.02-1.073-.02a2.057,2.057,0,0,0-1.494.7,6.281,6.281,0,0,0-1.96,4.672c0,2.757,2.007,5.419,2.287,5.793s3.949,6.03,9.567,8.456a32.056,32.056,0,0,0,3.193,1.18,7.677,7.677,0,0,0,3.527.222c1.076-.161,3.313-1.355,3.78-2.663a4.679,4.679,0,0,0,.326-2.663C34,27.525,33.629,27.385,33.07,27.1Zm0,0" transform="translate(-0.25)" fill="#fff" fill-rule="evenodd"/>
</svg>
